<svg xmlns="http://www.w3.org/2000/svg" xmlns:xlink="http://www.w3.org/1999/xlink" version="1.1" width="1080" height="1080" viewBox="0 0 1080 1080" xml:space="preserve">
<desc>Created with Fabric.js 3.5.0</desc>
<defs>
</defs>
<rect x="0" y="0" width="100%" height="100%" fill="#ffffff"/>
<g transform="matrix(0.0759 0 0 -0.0759 539.8758 539.8464)" id="663605">
<path style="stroke: none; stroke-width: 1; stroke-dasharray: none; stroke-linecap: butt; stroke-dashoffset: 0; stroke-linejoin: miter; stroke-miterlimit: 4; is-custom-font: none; font-file-url: none; fill: rgb(0,0,0); fill-rule: nonzero; opacity: 1;" vector-effect="non-scaling-stroke" transform=" translate(-5180.9041, -6399.1386)" d="M 4875 12788 c -54 -19 -97 -59 -123 -116 c -23 -51 -26 -73 -34 -251 c -4 -108 -15 -313 -23 -456 c -13 -253 -14 -260 -37 -275 c -40 -26 -128 -112 -163 -160 l -33 -45 l -16 -215 c -9 -118 -34 -464 -56 -767 c -61 -841 -115 -1582 -165 -2278 c -25 -346 -50 -700 -54 -785 c -7 -119 -14 -168 -30 -211 c -44 -115 -139 -188 -273 -209 c -86 -13 -136 -5 -200 34 c -130 78 -246 295 -338 635 c -63 234 -80 334 -260 1566 c -94 644 -173 1176 -176 1183 c -3 10 -9 10 -24 2 c -16 -9 -31 -5 -78 21 c -72 40 -100 36 -126 -18 c -28 -60 -65 -109 -90 -121 c -26 -12 -35 -5 -70 51 c -23 38 -74 67 -115 67 c -27 0 -45 -10 -87 -50 c -65 -61 -117 -88 -137 -71 c -20 16 -25 52 -16 111 c 9 60 37 102 81 123 c 35 16 171 32 407 46 c 153 10 179 6 219 -32 l 24 -22 l -6 25 c -3 14 -22 140 -42 280 l -36 255 l -36 33 c -21 18 -70 59 -111 90 l -74 56 l 6 76 c 41 503 26 812 -49 1040 c -27 80 -83 172 -124 202 c -53 38 -92 47 -134 33 c -56 -20 -93 -60 -136 -150 c -83 -172 -111 -372 -116 -811 l -4 -320 l -63 -65 c -89 -91 -125 -166 -139 -281 c -43 -373 114 -1810 403 -3686 c 21 -140 22 -146 4 -200 c -34 -113 -84 -192 -178 -286 c -102 -102 -100 -102 -222 -42 c -89 44 -171 118 -230 205 c -62 94 -70 117 -185 495 c -55 181 -102 331 -104 333 c -2 2 -147 -21 -323 -52 c -176 -30 -329 -55 -341 -55 c -25 0 -98 79 -123 135 c -25 55 -24 105 4 146 c 22 32 31 36 197 81 c 96 26 195 53 220 60 l 45 14 l 7 254 c 23 779 24 850 8 850 c -8 0 -140 -12 -292 -27 l -277 -27 l -20 25 c -39 46 -82 139 -88 187 c -5 44 -3 52 23 80 l 29 31 l 240 11 c 132 6 251 14 264 16 l 23 5 l -5 277 c -7 381 -40 578 -126 757 c -34 72 -40 93 -50 205 c -35 372 -109 699 -172 756 c -27 24 -100 22 -138 -5 c -37 -27 -77 -108 -90 -186 c -6 -33 -20 -208 -31 -390 l -21 -330 l -40 -58 c -229 -329 -284 -911 -169 -1812 c 81 -636 197 -1292 305 -1725 c 47 -188 158 -538 193 -607 c 12 -24 22 -71 26 -128 c 38 -505 151 -1154 261 -1504 c 20 -62 25 -95 21 -130 c -45 -358 -51 -1190 -11 -1516 c 37 -310 63 -387 209 -613 c 493 -768 857 -1401 961 -1671 c 31 -79 38 -120 81 -469 l 47 -382 l 111 0 c 116 0 1981 -14 3319 -25 l 777 -7 l 0 64 c 0 341 107 823 251 1127 c 147 312 374 566 614 689 c 85 43 541 662 802 1087 c 233 381 436 796 524 1074 c 22 69 27 76 99 136 c 42 35 132 121 200 192 c 421 434 763 1070 980 1823 c 65 226 129 499 141 605 c 14 122 5 287 -20 386 l -19 74 l 214 668 c 118 367 214 669 214 671 c 0 2 -21 11 -46 21 c -126 48 -270 5 -404 -121 l -72 -68 l -184 -368 l -184 -368 l -48 0 c -167 -1 -363 -131 -527 -351 c -77 -103 -71 -91 -476 -1049 l -104 -244 l -95 -97 c -285 -288 -613 -487 -894 -540 c -78 -15 -248 -15 -304 0 c -147 40 -235 265 -247 631 c -5 143 0 227 38 640 l 43 475 l -28 79 c -40 113 -100 210 -179 287 c -160 159 -359 187 -599 83 c -51 -23 -63 -33 -81 -71 c -34 -70 -269 -390 -353 -481 c -17 -19 -48 -42 -68 -53 c -75 -39 -139 -19 -219 69 l -52 56 l 7 296 c 16 691 26 1514 26 2202 l 0 736 l -77 7 c -205 17 -297 42 -369 100 l -29 23 l 40 40 c 54 53 118 67 275 58 c 63 -3 125 -9 138 -12 c 22 -6 22 -5 22 87 c 0 152 -19 586 -31 698 c -12 125 -22 150 -84 219 l -48 54 l 23 482 c 26 538 26 542 -36 615 c -54 62 -172 89 -259 59 z m 180 -70 c 20 -17 44 -47 54 -67 c 17 -35 16 -52 -15 -491 c -18 -250 -33 -468 -34 -485 l 0 -30 l -18 22 c -9 12 -30 27 -45 32 c -39 15 -130 13 -199 -3 c -32 -7 -59 -12 -60 -10 c -2 1 8 214 22 472 l 25 470 l 31 39 c 49 61 89 83 150 83 c 46 0 59 -5 89 -32 z m -2648 -180 c 49 -45 84 -172 102 -368 c 18 -186 10 -815 -10 -834 c -3 -3 -30 4 -60 16 c -59 23 -191 29 -283 14 l -49 -8 l 6 214 c 18 584 86 923 198 980 c 37 20 63 16 96 -14 z m -1873 -1051 c 32 -32 61 -114 80 -226 c 15 -91 43 -518 34 -527 c -3 -2 -33 3 -68 12 c -72 18 -139 8 -177 -28 l -23 -21 l 1 129 c 2 321 15 568 34 612 c 29 71 77 91 119 49 z m 4359 -2453 c 88 -36 173 -72 189 -80 c 37 -19 52 -74 33 -120 l -14 -34 l -113 0 c -73 0 -127 -5 -153 -15 c -52 -19 -90 -19 -129 0 c -62 30 -103 149 -77 228 c 14 43 57 87 83 87 c 11 0 92 -30 181 -66 z m -1980 -154 c 59 -15 97 -64 97 -122 c 0 -60 -47 -72 -162 -42 c -76 19 -139 8 -218 -40 c -81 -49 -205 -56 -247 -13 c -34 34 26 132 111 182 c 72 42 139 55 261 51 c 61 -2 132 -9 158 -16 z m 7217 -357 c 0 -5 -79 -216 -176 -469 l -176 -462 l -31 35 c -33 37 -79 64 -144 83 c -24 7 -43 17 -43 22 c 0 12 167 327 257 485 c 84 146 139 218 198 262 c 51 36 115 61 115 44 z m -5370 -1239 c 47 -8 138 -31 203 -51 c 98 -30 123 -42 148 -70 c 35 -41 37 -73 5 -110 l -24 -27 l -148 47 c -245 77 -340 99 -387 92 c -58 -9 -142 -49 -192 -90 c -37 -30 -48 -33 -81 -29 c -121 17 -141 68 -57 145 c 122 112 273 138 533 93 z m -1760 -151 c 67 -42 110 -100 110 -150 c 0 -35 -37 -100 -71 -125 l -25 -19 l -84 47 c -186 105 -356 157 -441 134 c -59 -16 -112 -72 -128 -136 c -7 -27 -14 -54 -16 -60 c -5 -17 -141 -57 -170 -50 c -19 5 -25 13 -25 34 c 0 31 56 130 98 176 c 82 88 238 148 442 170 c 78 9 285 -5 310 -21 z m -1525 -503 c 49 -15 105 -70 105 -103 c 0 -23 -5 -26 -52 -32 c -127 -16 -155 -30 -247 -125 c -88 -89 -123 -110 -194 -110 c -68 0 -137 59 -137 118 c 0 37 70 188 101 218 c 42 40 114 54 259 50 c 69 -2 143 -9 165 -16 z m 7054 -436 c 21 -115 80 -296 132 -403 c 51 -104 85 -146 216 -262 c 51 -46 58 -72 28 -106 c -35 -42 -78 -37 -157 19 c -118 85 -200 223 -288 486 c -51 150 -62 230 -39 273 c 11 21 66 59 85 59 c 6 0 16 -30 23 -66 z m -3869 -726 c 0 -32 -20 -76 -56 -124 c -51 -66 -19 -126 75 -139 c 46 -6 58 -2 277 100 l 229 106 l 72 -3 c 59 -3 76 -7 97 -27 c 36 -34 42 -80 19 -149 l -19 -57 l -154 -6 c -202 -9 -281 -31 -405 -115 c -27 -18 -574 -267 -1215 -553 c -641 -285 -1306 -582 -1479 -660 l -315 -140 l -39 32 c -47 36 -97 111 -97 143 c 0 31 42 77 87 97 c 190 80 263 112 1543 677 c 377 166 743 327 813 358 c 116 51 130 60 148 94 c 24 48 24 73 -1 98 c -28 28 -88 26 -237 -10 c -257 -62 -1037 -229 -1618 -345 c -44 -9 -107 -28 -140 -42 c -186 -81 -340 -82 -396 -3 c -36 51 -31 61 56 93 c 853 315 1782 547 2450 612 c 286 27 305 25 305 -37 z m 969 -592 c 15 -8 35 -26 44 -39 c 15 -24 14 -26 -89 -128 c -182 -180 -290 -326 -324 -438 c -13 -42 -33 -78 -58 -105 c -180 -196 -325 -526 -363 -822 c -18 -145 -7 -424 22 -544 c 23 -94 23 -104 26 -809 l 3 -714 l -22 15 c -79 52 -207 311 -324 654 l -47 139 l 2 250 c 4 730 98 1297 246 1491 c 14 18 106 180 206 361 c 189 341 236 410 372 544 c 136 134 236 181 306 145 z m -1968 -2016 c 40 -11 177 -146 260 -255 c 263 -346 424 -733 513 -1230 c 42 -235 51 -323 50 -505 c -1 -194 -19 -290 -71 -379 c -30 -53 -157 -188 -184 -196 c -53 -17 -84 48 -77 165 c 4 68 11 90 51 172 c 69 138 84 287 52 501 c -16 108 -22 123 -153 408 c -50 108 -177 394 -282 635 c -105 242 -211 480 -235 529 c -25 50 -45 102 -45 117 c 0 44 46 59 121 38 z" stroke-linecap="round"/>
</g>
</svg>